<svg version="1.1" xmlns="http://www.w3.org/2000/svg" viewBox="0 0 30 30" width="100%" height="100%"
  preserveAspectRatio="xMidYMid meet">
  <g transform="translate(3,3)">
    <path fill="#E94B61" d="M23.1,16l-3-2.4l2.9-2.3l0.1-0.1c0.4-0.4,0.5-0.8,0.5-1.3c0-0.5-0.2-0.9-0.6-1.3l-10-8.1
      C12.8,0.2,12.3,0,11.9,0S11,0.2,10.7,0.4L0.6,8.7L0.5,8.7c-0.7,0.7-0.7,1.8,0,2.5l3,2.4l-3,2.4l-0.1,0.1c-0.7,0.7-0.7,1.8,0,2.5
      l10.1,7.9c0.3,0.3,0.8,0.5,1.2,0.5c0.4,0,0.9-0.2,1.2-0.4l6.6-5.2l3.4-2.7l0.1-0.1c0.4-0.4,0.5-0.8,0.5-1.3
      C23.7,16.8,23.5,16.3,23.1,16z M11.8,24.9l-9.7-7.6l3-2.5l5.4,4.2c0.3,0.3,0.8,0.5,1.2,0.5c0.4,0,0.9-0.2,1.2-0.4l3.8-3l-1.6-1.3
      l-3.5,2.7l-5.1-4l0,0l-1.6-1.3l-3-2.4l9.8-7.9l9.7,7.8l-3,2.4l-5.4-4.4c-0.4-0.3-0.8-0.5-1.3-0.5S11,7.5,10.7,7.8L6.8,11l1.6,1.3
      l3.5-2.8l9.7,7.9L11.8,24.9z" />
  </g>
</svg>