<svg id="Layer_1" data-name="Layer 1" xmlns="http://www.w3.org/2000/svg" viewBox="0 0 811.71 680.28"><defs><style>.cls-1{fill:#0254ec;}</style></defs><path class="cls-1" d="M628.24,182.74H515.09a7.24,7.24,0,0,0-6.76,4.67L428.65,396a2.58,2.58,0,0,1-4.75.15L328.78,188.89A12.7,12.7,0,0,0,318,181.43h-.16a12.69,12.69,0,0,0-11.13,7.48L211.59,396.16a2.58,2.58,0,0,1-4.75-.15l-79.68-208.6a7.24,7.24,0,0,0-6.76-4.67H7.25a7.28,7.28,0,0,0-6.76,9.91l187.13,487a2.58,2.58,0,0,0,4.72.22l114-228.14a12.78,12.78,0,0,1,22.91,0l114,228.14a2.58,2.58,0,0,0,4.72-.22l187-487a7.28,7.28,0,0,0-6.76-9.91ZM809.78,93.37a2.48,2.48,0,0,1,1.93,2.42h0a2.48,2.48,0,0,1-1.93,2.41c-20.41,4.71-51.37,13.85-64,26.45s-21.74,43.56-26.45,64a2.48,2.48,0,0,1-2.42,1.93h0a2.48,2.48,0,0,1-2.42-1.93c-4.71-20.41-13.84-51.37-26.44-64s-43.56-21.74-64-26.45a2.47,2.47,0,0,1-1.92-2.42h0a2.47,2.47,0,0,1,1.92-2.42c20.42-4.71,51.37-13.84,64-26.45s21.74-43.55,26.45-64A2.47,2.47,0,0,1,717,1h0A2.47,2.47,0,0,1,719.36,3c4.72,20.42,13.85,51.37,26.45,64S789.37,88.66,809.78,93.37Z" transform="translate(0 -1.03)"/></svg>